PathFileType	4	(X/Y/Z)	Kaydara	
DataRate	CameraRate	NumFrames	NumMarkers	Units	OrigDataRate	OrigDataStartFrame	OrigNumFrames	
60.00	60.00	4	74	mm	60.00	390	242	
Frame#	Time	Z_lasi			Z_rasi			Z_rpsi			Z_lpsi			Z_fneck			Z_bneck			Z_fhead			Z_rhead			Z_lhead			Z_rshld			Z_relbtop			Z_relbext			Z_relblow			Z_rwrext			Z_rwrtop			Z_rwrlow			Z_lshld			Z_lelbext			Z_lelblow			Z_lelbtop			Z_lwrext			Z_lwrtop			Z_rtopleg			Z_ltopleg			Z_rkneefr			Z_rkneebk			Z_rkneeis			Z_lkneefr			Z_lknssbk			Z_lkneeis			Z_rankfr			Z_rankis			Z_rankbk			Z_lankfr			Z_lankbk			Z_lankis			A_lasi			A_rasi			A_rpsi			A_lpsi			A_fneck			A_bneck			A_fhead			A_rhead			A_lhead			A_rshld			A_relbtop			A_relbext			A_relblow			A_rwrext			A_rwrtop			A_rwrlow			A_lshld			A_lelbext			A_lelblow			A_lelbtop			A_lwrext			A_lwrtop			A_lwrlow			A_rtopleg			A_ltopleg			A_rkneefr			A_rkneebk			A_rkneeis			A_lkneefr			A_lknssbk			A_lkneeis			A_rankfr			A_rankis			A_rankbk			A_lankfr			A_lankbk			A_lankis			Z_lwrlow			
		X1	Y1	Z1	X2	Y2	Z2	X3	Y3	Z3	X4	Y4	Z4	X5	Y5	Z5	X6	Y6	Z6	X7	Y7	Z7	X8	Y8	Z8	X9	Y9	Z9	X10	Y10	Z10	X11	Y11	Z11	X12	Y12	Z12	X13	Y13	Z13	X14	Y14	Z14	X15	Y15	Z15	X16	Y16	Z16	X17	Y17	Z17	X18	Y18	Z18	X19	Y19	Z19	X20	Y20	Z20	X21	Y21	Z21	X22	Y22	Z22	X23	Y23	Z23	X24	Y24	Z24	X25	Y25	Z25	X26	Y26	Z26	X27	Y27	Z27	X28	Y28	Z28	X29	Y29	Z29	X30	Y30	Z30	X31	Y31	Z31	X32	Y32	Z32	X33	Y33	Z33	X34	Y34	Z34	X35	Y35	Z35	X36	Y36	Z36	X37	Y37	Z37	X38	Y38	Z38	X39	Y39	Z39	X40	Y40	Z40	X41	Y41	Z41	X42	Y42	Z42	X43	Y43	Z43	X44	Y44	Z44	X45	Y45	Z45	X46	Y46	Z46	X47	Y47	Z47	X48	Y48	Z48	X49	Y49	Z49	X50	Y50	Z50	X51	Y51	Z51	X52	Y52	Z52	X53	Y53	Z53	X54	Y54	Z54	X55	Y55	Z55	X56	Y56	Z56	X57	Y57	Z57	X58	Y58	Z58	X59	Y59	Z59	X60	Y60	Z60	X61	Y61	Z61	X62	Y62	Z62	X63	Y63	Z63	X64	Y64	Z64	X65	Y65	Z65	X66	Y66	Z66	X67	Y67	Z67	X68	Y68	Z68	X69	Y69	Z69	X70	Y70	Z70	X71	Y71	Z71	X72	Y72	Z72	X73	Y73	Z73	X74	Y74	Z74	

182	6.483	-151.91601	1092.73712	-277.38310	-309.70074	1100.87112	-139.31025	-463.86269	1128.69087	-253.65034	-281.64629	1115.32509	-422.05383	-253.87608	1455.03326	-225.10426	-315.79298	1513.64731	-317.39897	-256.67627	1672.75894	-138.14760	-379.00501	1645.96954	-250.03422	-242.23373	1649.91455	-305.87587	-437.80731	1444.48624	-148.25469	-323.62331	1208.94554	-1.22446	-360.33367	1136.17531	-4.24181	-320.82066	1127.45735	-54.68591	-168.50073	1094.63486	113.32339	-167.47101	1140.19318	125.39917	-144.26332	1150.63446	90.49386	-155.08425	1451.99448	-407.70550	-111.29083	1126.22406	-490.65300	-147.93985	1110.30708	-429.25282	-59.78469	1137.55798	-436.03535	-26.65923	901.63475	-351.35353	2.55217	895.50522	-389.60220	-491.27365	927.39723	-210.48550	-152.51318	900.91316	-357.51717	-455.80124	423.52928	-141.84641	-517.66205	457.51492	-199.50140	-396.13396	429.60125	-218.62959	-171.26566	433.99940	-273.65046	-215.83544	456.11206	-370.77320	-263.00968	424.58824	-256.18006	-503.41248	188.51847	-180.65613	-449.18880	180.92068	-216.16611	-525.96577	187.30785	-252.10476	-195.97792	167.06039	-311.52111	-264.62095	170.08209	-353.80894	-258.61216	177.37316	-274.65837	80.49074	1042.30354	544.10595	187.50633	1052.05856	430.58895	313.45028	1050.95673	531.21605	164.49121	1053.16200	631.83891	188.84546	1388.78601	532.80621	294.64359	1425.30273	620.20016	164.21324	1600.31876	468.99586	324.15306	1572.62314	526.05804	200.54434	1575.05737	632.12208	339.72187	1367.87354	439.85806	209.05317	1178.24570	285.34775	230.09569	1119.82063	303.34763	172.70618	1158.14461	329.01981	8.34251	1101.43921	164.38650	-0.89022	1076.15402	200.96949	-3.96111	1139.16557	177.48135	106.90505	1374.30954	673.11508	37.92042	1076.13548	687.50633	85.53124	1061.27869	690.48332	47.89785	1072.44720	634.55471	-24.63059	852.15034	659.36913	-50.20135	865.65559	622.59640	1.45106	846.07582	626.33755	340.21690	877.41173	443.45783	57.41540	888.38394	641.76636	231.51005	414.85020	566.09440	323.43578	446.18610	516.18881	239.81730	407.23633	456.82850	217.68532	452.05536	581.16180	124.55800	475.78033	660.34355	122.30271	424.08081	546.65596	260.69590	168.84436	472.27100	227.57896	164.45570	535.38143	310.94526	150.62105	534.26163	134.27465	168.69175	606.92436	140.48181	170.66587	676.84853	210.09230	173.92708	621.66504	-31.61200	885.95116	-419.56066 
183	6.500	-152.14254	1092.95753	-276.91832	-310.80278	1101.30020	-139.69423	-464.03828	1128.48221	-254.84760	-281.30285	1114.89433	-422.31087	-254.59841	1455.24902	-226.52298	-316.20626	1513.50006	-319.02590	-256.93735	1672.92572	-139.93548	-379.48692	1645.98328	-251.72489	-242.73878	1649.81537	-307.64923	-438.98220	1444.70749	-150.21363	-324.79126	1208.93341	-2.73501	-361.47259	1136.34781	-5.89124	-322.27936	1127.57149	-56.23240	-169.52150	1094.03320	111.45162	-168.31059	1139.54582	123.48467	-145.26005	1149.95461	88.67819	-155.22747	1451.51566	-408.68095	-111.62878	1125.61111	-490.92297	-148.59774	1109.70840	-429.86481	-60.18433	1136.87836	-436.34285	-26.73924	901.08025	-351.78772	1.86579	894.66301	-390.32089	-491.65203	927.19803	-211.24857	-152.20827	900.89050	-356.68606	-455.91232	423.42384	-142.20332	-517.87750	457.38464	-199.76793	-396.22860	429.42829	-218.94657	-170.96649	433.91510	-272.76924	-215.30884	456.10935	-369.89166	-262.76966	424.54548	-255.58336	-503.44090	188.41747	-180.81146	-449.23264	180.72399	-216.32040	-526.04179	187.04508	-252.18603	-195.90921	167.05381	-311.31065	-264.26184	170.10015	-353.39680	-258.60014	177.30736	-274.48917	80.07683	1042.52831	543.34888	187.21937	1052.63779	430.01331	313.15567	1050.74364	530.37106	164.21055	1053.16917	632.12360	188.50485	1389.22974	533.11813	294.50260	1424.87579	620.78625	164.34923	1600.42435	469.85054	324.13033	1572.24335	527.11826	200.28324	1574.65836	633.17524	339.05205	1367.94846	440.05772	208.31520	1178.86559	284.87547	229.74798	1120.54901	302.50933	172.48331	1158.25912	328.42308	8.59778	1100.63332	163.33971	-0.88827	1075.37575	200.14940	-3.88473	1138.34030	176.43301	106.87124	1373.84109	673.65280	38.64879	1075.56686	687.97234	86.28770	1060.80872	690.51025	48.19106	1072.33047	634.88995	-24.20192	851.74690	657.40959	-50.20652	866.05934	621.30817	1.23107	846.13121	623.79086	339.05312	877.20268	441.60244	57.04872	888.46825	640.67070	230.31052	415.04025	565.04070	322.24369	446.50166	514.76162	238.70657	407.26086	455.53707	219.27212	452.02320	584.91478	124.90934	476.21155	662.67784	122.83958	424.20364	549.51336	260.17439	168.81689	471.95576	227.13421	164.58862	535.06649	310.53663	151.03492	533.80703	134.28946	169.04179	607.87579	140.47105	170.50098	677.68288	210.11583	174.00204	622.50637	-32.69915	885.05157	-419.91646 
184	6.517	-152.36633	1093.28796	-276.40726	-311.90228	1101.62338	-139.99182	-464.61060	1128.18802	-255.97115	-281.02814	1114.45328	-422.50801	-255.13065	1455.48203	-227.83459	-316.79972	1513.34839	-320.64610	-257.54431	1672.96539	-141.46690	-380.10258	1645.98099	-253.03295	-243.50830	1649.85718	-309.18772	-439.87301	1444.96521	-151.99855	-326.15898	1208.87131	-4.17402	-362.96162	1136.40419	-7.49039	-323.61240	1127.53334	-57.89640	-170.92545	1093.31383	109.60447	-169.66078	1138.84666	121.64268	-146.37039	1149.22585	86.80604	-155.48889	1451.10565	-409.55467	-111.98530	1125.09621	-491.35250	-149.22963	1109.29764	-430.41981	-60.71446	1136.25656	-436.56689	-27.50357	900.31914	-352.09343	0.81721	893.80630	-390.81635	-492.16042	927.05986	-212.02953	-151.90715	900.93094	-355.66879	-456.15036	423.24509	-142.71283	-518.12263	457.26830	-200.16483	-396.31462	429.30065	-219.28793	-170.74223	433.86024	-271.97092	-214.86382	456.18080	-369.15947	-262.71267	424.56322	-255.11467	-503.59394	188.32285	-180.99625	-449.28108	180.59662	-216.57068	-526.08643	186.74177	-252.27734	-195.81345	167.06364	-311.06939	-264.31757	170.19878	-353.59493	-258.60529	177.26192	-274.37189	79.51568	1042.70714	542.87926	186.66256	1053.11203	429.43039	312.52232	1050.55626	529.20979	163.83684	1052.68150	631.06331	187.99629	1389.08966	533.53992	294.27420	1424.27597	621.42914	164.46199	1600.53726	470.76210	324.10450	1571.74438	528.17554	199.93343	1574.29688	633.90602	338.28453	1368.03543	440.41412	207.91265	1179.05334	284.35806	229.63594	1120.78186	301.73374	171.84254	1158.16307	327.92179	9.02984	1100.09422	162.37652	-0.86084	1074.91272	199.57369	-3.70952	1137.69852	175.48771	106.70813	1373.27118	674.19060	39.59878	1074.85695	688.73177	87.23162	1060.00870	690.44518	48.62772	1072.05948	635.37506	-24.16072	851.34308	655.58243	-49.95520	866.22986	620.04211	1.56762	846.22238	620.57381	337.72919	877.00577	439.42242	56.84825	888.58940	640.10170	229.29739	414.96449	562.93072	321.19774	446.69476	513.75507	237.70576	407.22240	454.54941	219.98409	452.20528	587.16633	125.02650	476.57764	664.78699	122.84472	424.15337	551.77349	259.75555	168.78733	471.56731	226.77366	164.69763	534.84364	310.21023	151.28194	533.55927	134.19665	169.22112	608.66463	140.52487	170.32722	678.64990	209.95518	174.03425	623.33080	-34.01283	884.30252	-420.01266 
185	6.533	-151.90657	1093.88237	-274.92931	-313.03122	1101.94839	-140.25477	-465.38303	1127.97440	-256.80727	-280.84471	1114.07730	-422.59571	-256.10815	1455.72067	-229.02931	-317.43526	1513.25134	-322.15103	-258.23542	1673.12180	-143.03027	-381.00716	1645.94025	-254.27893	-244.46100	1649.86542	-310.66921	-441.07937	1445.14252	-153.59177	-327.87758	1208.60146	-5.63741	-364.62070	1136.25877	-9.11337	-325.45929	1127.39235	-59.39230	-172.49531	1092.53914	107.88080	-171.32254	1137.92725	119.94594	-147.90201	1148.37814	85.05241	-155.79251	1450.63095	-410.46909	-112.30318	1124.64508	-491.71066	-149.83231	1108.83965	-430.80490	-61.31381	1135.64873	-436.75713	-28.61182	899.72900	-352.42462	-0.44165	892.97989	-391.21948	-492.64935	926.94427	-212.65326	-151.70232	900.97916	-354.75063	-456.54617	423.27370	-143.01975	-518.34301	457.10690	-200.66046	-396.47316	429.20208	-219.68729	-170.62593	433.83263	-271.32238	-214.47910	456.28525	-368.64765	-262.61501	424.50409	-254.64211	-503.67321	188.19214	-181.25021	-449.45217	180.45458	-216.77753	-526.19389	186.53900	-252.81170	-195.78859	167.08698	-310.90635	-264.24337	170.24557	-353.49998	-258.64313	177.20385	-274.28621	78.55864	1042.64519	542.61063	185.72668	1053.43277	428.78113	312.00542	1050.47791	527.63794	163.63962	1052.06772	629.89323	187.21647	1388.90442	534.02378	293.64021	1423.49213	622.12326	164.59246	1600.64957	471.75251	324.01745	1570.94345	529.16584	200.02066	1573.83026	634.96403	337.49405	1368.09845	440.48103	207.96263	1178.75221	283.76036	229.85247	1120.52971	300.99268	171.94855	1157.64702	327.23770	9.52398	1099.93050	161.65533	-0.40638	1074.68918	198.83724	-3.58682	1137.38228	175.09209	106.37350	1372.59476	674.84200	40.49680	1074.02786	689.29703	88.12122	1059.16862	690.87463	49.17498	1071.34834	635.94151	-23.83071	850.64568	654.14986	-49.75010	866.19102	618.88958	1.78299	846.12221	618.41328	336.15360	876.90254	437.12429	56.78485	888.58429	639.79744	228.33540	415.12833	560.90405	320.53761	446.87351	512.63336	236.98505	407.16152	453.80798	220.04980	452.39838	588.84502	125.32206	476.74664	666.49529	122.47338	424.15955	553.66112	259.45887	168.77131	471.33026	226.59672	164.75416	534.71886	310.02613	151.41571	533.26065	133.89274	169.30414	609.38812	140.63241	170.18414	679.37195	209.76171	173.99942	623.92273	-35.40519	883.54538	-420.35431 
